<mxfile host="drawio-plugin" modified="2024-01-12T09:17:32.490Z" agent="5.0 (Windows NT 6.2; Win64; x64) AppleWebKit/537.36 (KHTML, like Gecko) Chrome/104.0.5112.102 Safari/537.36" etag="JSZ8Wr-O3UpAor_xXCYm" version="20.5.3" type="embed"><diagram name="Seite-1" id="DiI_P2AciUkaOh_f3liI"><mxGraphModel dx="612" dy="519" grid="1" gridSize="10" guides="1" tooltips="1" connect="1" arrows="1" fold="1" page="1" pageScale="1" pageWidth="827" pageHeight="1169" math="0" shadow="0"><root><mxCell id="0"/><mxCell id="1" parent="0"/><mxCell id="ciYdKhQm13DHMmx4V6EC-3" value="Eingabe des Pfades" style="rounded=0;whiteSpace=wrap;html=1;" parent="1" vertex="1"><mxGeometry x="25" y="110" width="120" height="60" as="geometry"/></mxCell><mxCell id="ciYdKhQm13DHMmx4V6EC-11" value="" style="ellipse;html=1;shape=startState;fillColor=#000000;strokeColor=#ff0000;" parent="1" vertex="1"><mxGeometry x="70" y="10" width="30" height="30" as="geometry"/></mxCell><mxCell id="ciYdKhQm13DHMmx4V6EC-12" value="" style="edgeStyle=orthogonalEdgeStyle;html=1;verticalAlign=bottom;endArrow=open;endSize=8;strokeColor=#ff0000;rounded=0;entryX=0.5;entryY=0;entryDx=0;entryDy=0;" parent="1" source="ciYdKhQm13DHMmx4V6EC-11" target="ciYdKhQm13DHMmx4V6EC-3" edge="1"><mxGeometry relative="1" as="geometry"><mxPoint x="130" y="100" as="targetPoint"/></mxGeometry></mxCell><mxCell id="ciYdKhQm13DHMmx4V6EC-10" value="" style="ellipse;html=1;shape=endState;fillColor=#000000;strokeColor=#ff0000;" parent="1" vertex="1"><mxGeometry x="235" y="1980" width="30" height="30" as="geometry"/></mxCell><mxCell id="3" value="Ist der Pfad korrekt?&lt;br&gt;Datei Valide?" style="rhombus;whiteSpace=wrap;html=1;" parent="1" vertex="1"><mxGeometry x="45" y="240" width="80" height="80" as="geometry"/></mxCell><mxCell id="4" value="Datei 端ber Pfad auslesen" style="rounded=1;whiteSpace=wrap;html=1;" parent="1" vertex="1"><mxGeometry x="30" y="370" width="120" height="60" as="geometry"/></mxCell><mxCell id="5" value="Daten vorhanden?" style="rhombus;whiteSpace=wrap;html=1;" parent="1" vertex="1"><mxGeometry x="50" y="500" width="80" height="80" as="geometry"/></mxCell><mxCell id="6" value="Datei f端llen" style="rounded=1;whiteSpace=wrap;html=1;" parent="1" vertex="1"><mxGeometry x="220" y="510" width="120" height="60" as="geometry"/></mxCell><mxCell id="7" value="CSV in SQL transformieren" style="rounded=1;whiteSpace=wrap;html=1;" parent="1" vertex="1"><mxGeometry x="40" y="680" width="120" height="60" as="geometry"/></mxCell><mxCell id="8" value="transformation erfolgreich?" style="rhombus;whiteSpace=wrap;html=1;" parent="1" vertex="1"><mxGeometry x="50" y="840" width="80" height="80" as="geometry"/></mxCell><mxCell id="9" value="Fehlermeldung" style="rounded=1;whiteSpace=wrap;html=1;" parent="1" vertex="1"><mxGeometry x="294" y="850" width="120" height="60" as="geometry"/></mxCell><mxCell id="10" value="DB-Verbindung aufbauen" style="rounded=1;whiteSpace=wrap;html=1;" parent="1" vertex="1"><mxGeometry x="30" y="990" width="120" height="60" as="geometry"/></mxCell><mxCell id="11" value="DB-Verbindung erfolgreich?" style="rhombus;whiteSpace=wrap;html=1;" parent="1" vertex="1"><mxGeometry x="50" y="1130" width="80" height="80" as="geometry"/></mxCell><mxCell id="12" value="Tabelle aufrufen" style="rounded=1;whiteSpace=wrap;html=1;" parent="1" vertex="1"><mxGeometry x="30" y="1290" width="120" height="60" as="geometry"/></mxCell><mxCell id="13" value="Verbindung 端berpr端fen / Problem beheben" style="rounded=1;whiteSpace=wrap;html=1;" parent="1" vertex="1"><mxGeometry x="235" y="1140" width="120" height="60" as="geometry"/></mxCell><mxCell id="14" value="existiert eine Tabelle?" style="rhombus;whiteSpace=wrap;html=1;" parent="1" vertex="1"><mxGeometry x="50" y="1420" width="80" height="80" as="geometry"/></mxCell><mxCell id="18" value="Pfad inkorrekt / Datei nicht valide" style="rounded=1;whiteSpace=wrap;html=1;" parent="1" vertex="1"><mxGeometry x="220" y="250" width="120" height="60" as="geometry"/></mxCell><mxCell id="19" value="" style="endArrow=classic;html=1;rounded=0;exitX=0.5;exitY=0;exitDx=0;exitDy=0;entryX=1;entryY=0.5;entryDx=0;entryDy=0;" parent="1" source="18" target="ciYdKhQm13DHMmx4V6EC-3" edge="1"><mxGeometry width="50" height="50" relative="1" as="geometry"><mxPoint x="210" y="340" as="sourcePoint"/><mxPoint x="260" y="290" as="targetPoint"/><Array as="points"><mxPoint x="280" y="140"/></Array></mxGeometry></mxCell><mxCell id="20" value="" style="endArrow=classic;html=1;rounded=0;exitX=0.5;exitY=1;exitDx=0;exitDy=0;entryX=0.5;entryY=0;entryDx=0;entryDy=0;" parent="1" source="ciYdKhQm13DHMmx4V6EC-3" target="3" edge="1"><mxGeometry width="50" height="50" relative="1" as="geometry"><mxPoint x="210" y="340" as="sourcePoint"/><mxPoint x="260" y="290" as="targetPoint"/></mxGeometry></mxCell><mxCell id="21" value="" style="endArrow=classic;html=1;rounded=0;exitX=0.5;exitY=1;exitDx=0;exitDy=0;entryX=0.448;entryY=-0.003;entryDx=0;entryDy=0;entryPerimeter=0;" parent="1" source="3" target="4" edge="1"><mxGeometry width="50" height="50" relative="1" as="geometry"><mxPoint x="180" y="290" as="sourcePoint"/><mxPoint x="180" y="360" as="targetPoint"/></mxGeometry></mxCell><mxCell id="22" value="" style="endArrow=classic;html=1;rounded=0;exitX=0.5;exitY=1;exitDx=0;exitDy=0;entryX=0.5;entryY=0;entryDx=0;entryDy=0;" parent="1" source="4" target="5" edge="1"><mxGeometry width="50" height="50" relative="1" as="geometry"><mxPoint x="110" y="450" as="sourcePoint"/><mxPoint x="130" y="480" as="targetPoint"/></mxGeometry></mxCell><mxCell id="23" value="" style="endArrow=classic;html=1;rounded=0;entryX=0.415;entryY=-0.077;entryDx=0;entryDy=0;entryPerimeter=0;exitX=0.5;exitY=1;exitDx=0;exitDy=0;" parent="1" source="5" target="7" edge="1"><mxGeometry width="50" height="50" relative="1" as="geometry"><mxPoint x="110" y="600" as="sourcePoint"/><mxPoint x="90" y="650" as="targetPoint"/></mxGeometry></mxCell><mxCell id="24" value="" style="endArrow=classic;html=1;rounded=0;entryX=0.5;entryY=0;entryDx=0;entryDy=0;exitX=0.417;exitY=1.033;exitDx=0;exitDy=0;exitPerimeter=0;" parent="1" source="7" target="8" edge="1"><mxGeometry width="50" height="50" relative="1" as="geometry"><mxPoint x="220.2" y="700" as="sourcePoint"/><mxPoint x="219.99999999999994" y="795.3800000000001" as="targetPoint"/></mxGeometry></mxCell><mxCell id="25" value="" style="endArrow=classic;html=1;rounded=0;exitX=1;exitY=0.5;exitDx=0;exitDy=0;entryX=0;entryY=0.5;entryDx=0;entryDy=0;" parent="1" source="5" target="6" edge="1"><mxGeometry width="50" height="50" relative="1" as="geometry"><mxPoint x="310" y="490" as="sourcePoint"/><mxPoint x="360" y="440" as="targetPoint"/></mxGeometry></mxCell><mxCell id="26" value="" style="endArrow=classic;html=1;rounded=0;exitX=0.5;exitY=0;exitDx=0;exitDy=0;entryX=0.5;entryY=1;entryDx=0;entryDy=0;" parent="1" source="6" target="18" edge="1"><mxGeometry width="50" height="50" relative="1" as="geometry"><mxPoint x="310" y="490" as="sourcePoint"/><mxPoint x="360" y="440" as="targetPoint"/></mxGeometry></mxCell><mxCell id="27" value="" style="endArrow=classic;html=1;rounded=0;exitX=1;exitY=0.5;exitDx=0;exitDy=0;entryX=0;entryY=0.5;entryDx=0;entryDy=0;" parent="1" source="8" target="9" edge="1"><mxGeometry width="50" height="50" relative="1" as="geometry"><mxPoint x="310" y="760" as="sourcePoint"/><mxPoint x="360" y="710" as="targetPoint"/></mxGeometry></mxCell><mxCell id="29" value="" style="endArrow=classic;html=1;rounded=0;exitX=0.5;exitY=1;exitDx=0;exitDy=0;entryX=0.5;entryY=0;entryDx=0;entryDy=0;" parent="1" source="8" target="10" edge="1"><mxGeometry width="50" height="50" relative="1" as="geometry"><mxPoint x="310" y="1110" as="sourcePoint"/><mxPoint x="360" y="1060" as="targetPoint"/></mxGeometry></mxCell><mxCell id="30" value="" style="endArrow=classic;html=1;rounded=0;exitX=0.5;exitY=1;exitDx=0;exitDy=0;entryX=0.5;entryY=0;entryDx=0;entryDy=0;" parent="1" source="10" target="11" edge="1"><mxGeometry width="50" height="50" relative="1" as="geometry"><mxPoint x="310" y="1210" as="sourcePoint"/><mxPoint x="360" y="1160" as="targetPoint"/></mxGeometry></mxCell><mxCell id="31" value="" style="endArrow=classic;html=1;rounded=0;exitX=1;exitY=0.5;exitDx=0;exitDy=0;entryX=0;entryY=0.5;entryDx=0;entryDy=0;" parent="1" source="11" target="13" edge="1"><mxGeometry width="50" height="50" relative="1" as="geometry"><mxPoint x="310" y="1210" as="sourcePoint"/><mxPoint x="360" y="1160" as="targetPoint"/></mxGeometry></mxCell><mxCell id="32" value="" style="endArrow=classic;html=1;rounded=0;exitX=0.5;exitY=1;exitDx=0;exitDy=0;entryX=0.5;entryY=0;entryDx=0;entryDy=0;" parent="1" source="11" target="12" edge="1"><mxGeometry width="50" height="50" relative="1" as="geometry"><mxPoint x="310" y="1540" as="sourcePoint"/><mxPoint x="360" y="1490" as="targetPoint"/></mxGeometry></mxCell><mxCell id="33" value="" style="endArrow=classic;html=1;rounded=0;exitX=0.5;exitY=1;exitDx=0;exitDy=0;entryX=0.5;entryY=0;entryDx=0;entryDy=0;" parent="1" source="12" target="14" edge="1"><mxGeometry width="50" height="50" relative="1" as="geometry"><mxPoint x="310" y="1540" as="sourcePoint"/><mxPoint x="360" y="1490" as="targetPoint"/></mxGeometry></mxCell><mxCell id="34" value="" style="endArrow=classic;html=1;rounded=0;exitX=0.5;exitY=1;exitDx=0;exitDy=0;entryX=0.5;entryY=0;entryDx=0;entryDy=0;" parent="1" source="14" target="38" edge="1"><mxGeometry width="50" height="50" relative="1" as="geometry"><mxPoint x="310" y="1540" as="sourcePoint"/><mxPoint x="90" y="1600" as="targetPoint"/></mxGeometry></mxCell><mxCell id="35" value="" style="endArrow=classic;html=1;rounded=0;entryX=0.5;entryY=0;entryDx=0;entryDy=0;" parent="1" target="39" edge="1"><mxGeometry width="50" height="50" relative="1" as="geometry"><mxPoint x="90" y="1560" as="sourcePoint"/><mxPoint x="250" y="1620" as="targetPoint"/><Array as="points"><mxPoint x="250" y="1560"/></Array></mxGeometry></mxCell><mxCell id="36" value="" style="endArrow=classic;html=1;rounded=0;entryX=0;entryY=0.5;entryDx=0;entryDy=0;" parent="1" target="18" edge="1"><mxGeometry width="50" height="50" relative="1" as="geometry"><mxPoint x="130" y="280" as="sourcePoint"/><mxPoint x="520" y="190" as="targetPoint"/></mxGeometry></mxCell><mxCell id="37" value="" style="endArrow=classic;html=1;rounded=0;exitX=0.5;exitY=0;exitDx=0;exitDy=0;entryX=1;entryY=0.5;entryDx=0;entryDy=0;" parent="1" source="13" target="10" edge="1"><mxGeometry width="50" height="50" relative="1" as="geometry"><mxPoint x="470" y="1130" as="sourcePoint"/><mxPoint x="520" y="1080" as="targetPoint"/><Array as="points"><mxPoint x="295" y="1020"/></Array></mxGeometry></mxCell><mxCell id="38" value="Tabelle mit Daten f端llen" style="rounded=1;whiteSpace=wrap;html=1;" parent="1" vertex="1"><mxGeometry x="30" y="1754" width="120" height="60" as="geometry"/></mxCell><mxCell id="39" value="vorhandene Daten l旦schen und aktuelle Daten speichern" style="rounded=1;whiteSpace=wrap;html=1;" parent="1" vertex="1"><mxGeometry x="190" y="1754" width="120" height="60" as="geometry"/></mxCell><mxCell id="40" value="" style="endArrow=classic;html=1;rounded=0;exitX=1;exitY=0.5;exitDx=0;exitDy=0;entryX=0;entryY=0.5;entryDx=0;entryDy=0;" parent="1" source="14" edge="1"><mxGeometry width="50" height="50" relative="1" as="geometry"><mxPoint x="470" y="1630" as="sourcePoint"/><mxPoint x="414" y="1460" as="targetPoint"/></mxGeometry></mxCell><mxCell id="41" value="Tabelle erzeugen / Daten speichern" style="rounded=1;whiteSpace=wrap;html=1;" parent="1" vertex="1"><mxGeometry x="414" y="1430" width="120" height="60" as="geometry"/></mxCell><mxCell id="45" value="" style="endArrow=classic;html=1;rounded=0;exitX=0.5;exitY=1;exitDx=0;exitDy=0;entryX=0.5;entryY=0;entryDx=0;entryDy=0;" parent="1" source="39" target="ciYdKhQm13DHMmx4V6EC-10" edge="1"><mxGeometry width="50" height="50" relative="1" as="geometry"><mxPoint x="330" y="1820" as="sourcePoint"/><mxPoint x="380" y="1770" as="targetPoint"/></mxGeometry></mxCell><mxCell id="48" value="" style="endArrow=none;html=1;rounded=0;exitX=0.5;exitY=1;exitDx=0;exitDy=0;" parent="1" source="38" edge="1"><mxGeometry width="50" height="50" relative="1" as="geometry"><mxPoint x="330" y="1820" as="sourcePoint"/><mxPoint x="250" y="1880" as="targetPoint"/><Array as="points"><mxPoint x="90" y="1880"/></Array></mxGeometry></mxCell><mxCell id="49" value="" style="endArrow=none;html=1;rounded=0;entryX=0.5;entryY=1;entryDx=0;entryDy=0;" parent="1" target="41" edge="1"><mxGeometry width="50" height="50" relative="1" as="geometry"><mxPoint x="250" y="1880" as="sourcePoint"/><mxPoint x="380" y="1770" as="targetPoint"/><Array as="points"><mxPoint x="474" y="1880"/></Array></mxGeometry></mxCell><mxCell id="50" value="START" style="text;html=1;strokeColor=none;fillColor=none;align=center;verticalAlign=middle;whiteSpace=wrap;rounded=0;" parent="1" vertex="1"><mxGeometry x="100" y="10" width="60" height="30" as="geometry"/></mxCell><mxCell id="51" value="ENDE" style="text;html=1;strokeColor=none;fillColor=none;align=center;verticalAlign=middle;whiteSpace=wrap;rounded=0;" parent="1" vertex="1"><mxGeometry x="270" y="1980" width="60" height="30" as="geometry"/></mxCell><mxCell id="52" value="" style="endArrow=classic;html=1;rounded=0;exitX=1;exitY=0.5;exitDx=0;exitDy=0;entryX=1;entryY=0;entryDx=0;entryDy=0;" edge="1" parent="1" source="9" target="ciYdKhQm13DHMmx4V6EC-3"><mxGeometry width="50" height="50" relative="1" as="geometry"><mxPoint x="290" y="700" as="sourcePoint"/><mxPoint x="340" y="650" as="targetPoint"/><Array as="points"><mxPoint x="410" y="110"/></Array></mxGeometry></mxCell><mxCell id="56" value="ja" style="edgeLabel;html=1;align=center;verticalAlign=middle;resizable=0;points=[];" vertex="1" connectable="0" parent="1"><mxGeometry x="100" y="180" as="geometry"><mxPoint x="-10" y="159" as="offset"/></mxGeometry></mxCell><mxCell id="57" value="ja" style="text;html=1;align=center;verticalAlign=middle;resizable=0;points=[];autosize=1;strokeColor=none;fillColor=none;" vertex="1" parent="1"><mxGeometry x="90" y="600" width="30" height="30" as="geometry"/></mxCell><mxCell id="58" value="nein" style="text;html=1;align=center;verticalAlign=middle;resizable=0;points=[];autosize=1;strokeColor=none;fillColor=none;" vertex="1" parent="1"><mxGeometry x="145" y="260" width="50" height="30" as="geometry"/></mxCell><mxCell id="59" value="nein" style="text;html=1;align=center;verticalAlign=middle;resizable=0;points=[];autosize=1;strokeColor=none;fillColor=none;" vertex="1" parent="1"><mxGeometry x="135" y="515" width="50" height="30" as="geometry"/></mxCell><mxCell id="60" value="ja" style="text;html=1;align=center;verticalAlign=middle;resizable=0;points=[];autosize=1;strokeColor=none;fillColor=none;" vertex="1" parent="1"><mxGeometry x="95" y="935" width="30" height="30" as="geometry"/></mxCell><mxCell id="61" value="nein" style="text;html=1;align=center;verticalAlign=middle;resizable=0;points=[];autosize=1;strokeColor=none;fillColor=none;" vertex="1" parent="1"><mxGeometry x="175" y="855" width="50" height="30" as="geometry"/></mxCell><mxCell id="62" value="ja" style="text;html=1;align=center;verticalAlign=middle;resizable=0;points=[];autosize=1;strokeColor=none;fillColor=none;" vertex="1" parent="1"><mxGeometry x="95" y="1230" width="30" height="30" as="geometry"/></mxCell><mxCell id="63" value="nein" style="text;html=1;align=center;verticalAlign=middle;resizable=0;points=[];autosize=1;strokeColor=none;fillColor=none;" vertex="1" parent="1"><mxGeometry x="155" y="1145" width="50" height="30" as="geometry"/></mxCell><mxCell id="64" value="nein" style="text;html=1;align=center;verticalAlign=middle;resizable=0;points=[];autosize=1;strokeColor=none;fillColor=none;" vertex="1" parent="1"><mxGeometry x="235" y="1435" width="50" height="30" as="geometry"/></mxCell><mxCell id="65" value="ja" style="text;html=1;align=center;verticalAlign=middle;resizable=0;points=[];autosize=1;strokeColor=none;fillColor=none;" vertex="1" parent="1"><mxGeometry x="85" y="1515" width="30" height="30" as="geometry"/></mxCell><mxCell id="66" value="&lt;br style=&quot;color: rgb(240, 240, 240); font-family: Helvetica; font-size: 12px; font-style: normal; font-variant-ligatures: normal; font-variant-caps: normal; font-weight: 400; letter-spacing: normal; orphans: 2; text-align: center; text-indent: 0px; text-transform: none; widows: 2; word-spacing: 0px; -webkit-text-stroke-width: 0px; background-color: rgb(42, 42, 42); text-decoration-thickness: initial; text-decoration-style: initial; text-decoration-color: initial;&quot;&gt;&lt;span style=&quot;color: rgb(240, 240, 240); font-family: Helvetica; font-size: 12px; font-style: normal; font-variant-ligatures: normal; font-variant-caps: normal; font-weight: 400; letter-spacing: normal; orphans: 2; text-align: center; text-indent: 0px; text-transform: none; widows: 2; word-spacing: 0px; -webkit-text-stroke-width: 0px; text-decoration-thickness: initial; text-decoration-style: initial; text-decoration-color: initial; background-color: rgb(42, 42, 42); float: none; display: inline !important;&quot;&gt;leere Tabelle vorhanden&lt;/span&gt;&lt;br style=&quot;color: rgb(240, 240, 240); font-family: Helvetica; font-size: 12px; font-style: normal; font-variant-ligatures: normal; font-variant-caps: normal; font-weight: 400; letter-spacing: normal; orphans: 2; text-align: center; text-indent: 0px; text-transform: none; widows: 2; word-spacing: 0px; -webkit-text-stroke-width: 0px; background-color: rgb(42, 42, 42); text-decoration-thickness: initial; text-decoration-style: initial; text-decoration-color: initial;&quot;&gt;" style="text;whiteSpace=wrap;html=1;rotation=90;" vertex="1" parent="1"><mxGeometry x="25" y="1645" width="160" height="50" as="geometry"/></mxCell><mxCell id="67" value="Tabelle mit Daten vorhanden" style="text;html=1;align=center;verticalAlign=middle;resizable=0;points=[];autosize=1;strokeColor=none;fillColor=none;rotation=90;" vertex="1" parent="1"><mxGeometry x="175" y="1645" width="180" height="30" as="geometry"/></mxCell></root></mxGraphModel></diagram></mxfile>